<svg height="438pt" viewBox="0 0 438.76341 438" width="438pt" xmlns="http://www.w3.org/2000/svg"><path d="m109.421875 329.71875c-60.695313-60.699219-60.695313-159.109375 0-219.808594h.003906l-38.792969-38.792968v.003906c-82.121093 82.121094-82.121093 215.265625 0 297.386718l38.792969-38.789062zm0 0" fill="#ffd766"/><path d="m71.304688 380.761719-7.140626-5.789063c-85.550781-85.554687-85.550781-224.761718 0-310.3125l6.972657-6.1875 51.214843 51.4375-6.460937 6.460938c-57.039063 57.039062-57.039063 149.839844 0 206.886718l6.460937 6.464844zm-.523438-296.566407c-33.980469 37.140626-52.597656 84.953126-52.597656 135.625 0 50.660157 18.605468 98.472657 52.589844 135.613282l25.902343-25.890625c-55.777343-62.285157-55.777343-157.179688 0-219.457031zm0 0" fill="#2a3d4f"/><path d="m329.234375 109.910156 38.789063-38.792968c-82.121094-82.121094-215.269532-82.121094-297.390626 0l38.792969 38.792968c60.695313-60.699218 159.109375-60.699218 219.808594 0zm0 0" fill="#eb675e"/><path d="m109.425781 122.835938-51.128906-51.128907 5.878906-7.046875c41.4375-41.449218 96.542969-64.277344 155.148438-64.277344 58.609375 0 113.714843 22.828126 155.164062 64.277344l5.375 7.550782-50.625 50.625-6.464843-6.464844c-57.035157-57.035156-149.847657-57.035156-206.882813 0zm109.898438-67.515626c39.296875 0 78.589843 13.945313 109.734375 41.839844l25.890625-25.894531c-37.140625-33.984375-84.953125-52.597656-135.625-52.597656-50.667969 0-98.472657 18.613281-135.613281 52.597656l25.890624 25.894531c31.136719-27.894531 70.429688-41.839844 109.722657-41.839844zm0 0" fill="#2a3d4f"/><path d="m109.425781 329.71875-38.792969 38.789062c82.121094 82.121094 215.265626 82.121094 297.390626 0l-38.789063-38.789062c-60.699219 60.699219-159.113281 60.699219-219.808594 0zm0 0" fill="#3c96d1"/><path d="m219.324219 439.140625c-56.1875 0-112.382813-21.394531-155.160157-64.167969l-5.578124-7.351562 50.839843-50.828125 6.464844 6.464843c57.035156 57.027344 149.835937 57.027344 206.882813 0l6.464843-6.464843 51.253907 51.257812-6.003907 6.921875c-42.777343 42.773438-98.972656 64.167969-155.164062 64.167969zm-135.621094-70.777344c76.585937 69.980469 194.660156 69.980469 271.246094 0l-25.890625-25.890625c-62.269532 55.773438-157.167969 55.773438-219.457032 0zm0 0" fill="#2a3d4f"/><path d="m368.023438 71.117188-38.789063 38.792968c60.695313 60.699219 60.695313 159.109375 0 219.808594l38.789063 38.789062c82.121093-82.121093 82.121093-215.265624 0-297.390624zm0 0" fill="#7bbd91"/><g fill="#2a3d4f"><path d="m367.394531 380.804688-51.085937-51.082032 6.464844-6.464844c57.035156-57.046874 57.035156-149.847656 0-206.886718l-6.464844-6.460938 50.800781-50.800781 7.378906 5.550781c41.445313 41.4375 64.273438 96.542969 64.273438 155.148438 0 58.617187-22.828125 113.726562-64.273438 155.164062zm-25.40625-51.261719 25.890625 25.890625c33.984375-37.140625 52.597656-84.953125 52.597656-135.625 0-50.660156-18.613281-98.472656-52.597656-135.613282l-25.890625 25.890626c55.773438 62.277343 55.773438 157.171874 0 219.457031zm0 0"/><path d="m118.753906 256.390625h201.144532v18.285156h-201.144532zm0 0"/><path d="m155.324219 183.246094h18.289062v82.289062h-18.289062zm0 0"/><path d="m210.183594 146.675781h18.285156v118.859375h-18.285156zm0 0"/><path d="m265.039062 128.390625h18.285157v137.144531h-18.285157zm0 0"/></g></svg>